<svg xmlns="http://www.w3.org/2000/svg" xmlns:xlink="http://www.w3.org/1999/xlink" xmlns:svgjs="http://svgjs.com/svgjs" version="1.1" width="1584.1596984863281" height="910.0635178190249"><g transform="scale(5) translate(30, 30)"> <defs id="SvgjsDefs1056"></defs><g xmlns:name="main_text" id="SvgjsG1057" rel="mainfill" name="main_text" transform="translate(-2.1091582775115967,-128.21271452701532)" fill="#225378" style="fill: #225378"><path d="M25.25 215.27C24.88 216.37 23.89 217.79 23.16 218.63C22.47 219.36 21.95 219.78 21.43 220.09C20.59 220.72 19.96 221.04 19.38 221.30C16.97 222.35 14.25 222.45 11.47 221.87C12.52 216.95 13.46 212.02 14.35 207.10C16.14 206.89 17.92 206.79 19.70 207.00C21.27 207.15 23.10 207.78 23.89 208.52C25.98 210.30 26.19 212.76 25.25 215.27ZM28.55 205.27C24.83 202.12 19.65 201.91 14.93 202.54C14.46 201.81 13.46 201.50 12.63 201.60C11.16 201.81 9.95 202.86 9.69 204.27C9.38 204.69 9.12 205.16 9.12 205.74C9.12 205.95 9.17 206.16 9.27 206.31C8.38 211.03 7.44 215.74 6.50 220.41C4.19 220.62 2.04 223.71 4.87 224.91C5.13 225.07 5.34 225.17 5.50 225.23C4.45 230.36 3.35 235.60 2.15 240.73C1.83 242.15 3.46 242.83 4.61 242.67C6.13 242.46 7.23 241.36 7.54 239.95C8.59 235.49 9.59 230.99 10.53 226.48C18.81 227.58 27.61 223.92 30.75 215.53C32.06 212.08 31.54 207.78 28.55 205.27ZM49.72 213.65C46.57 212.65 43.85 213.65 41.39 215.27C41.44 215.17 41.44 215.12 41.44 215.06C41.70 213.65 40.18 212.97 39.03 213.13C37.56 213.28 36.41 214.43 36.15 215.85C34.58 223.34 33.53 230.94 31.54 238.38C30.70 241.78 35.94 241.47 36.62 238.80C38.03 233.24 39.03 227.53 40.13 221.87C42.07 219.99 44.22 217.37 47.10 218.31C49.66 219.15 52.96 214.64 49.72 213.65ZM54.90 215.06C53.28 222.87 51.76 230.67 50.08 238.43C49.45 241.15 55.11 241.52 55.74 238.69C57.47 230.94 58.99 223.13 60.61 215.33C61.24 212.55 55.53 212.23 54.90 215.06ZM62.18 203.96C60.77 201.97 57.00 203.17 56.21 205.01C55.53 206.47 56.11 208.67 57.42 209.56C58.20 210.09 58.99 210.35 59.67 210.35C61.97 210.24 63.13 209.25 63.39 207.10C63.39 205.95 62.87 204.80 62.18 203.96ZM84.13 213.96C82.67 213.81 81.31 214.70 80.68 216.01C77.74 221.09 74.60 226.17 71.46 231.09C70.41 225.80 69.47 220.51 68.84 215.17C68.42 212.18 63.07 214.17 63.44 216.84C64.38 224.23 65.80 231.41 67.27 238.64C67.74 240.94 71.19 240.26 72.14 238.69C76.70 231.41 81.41 224.13 85.65 216.64C86.28 215.43 85.44 214.17 84.13 213.96ZM97.70 233.14C96.97 234.39 95.71 235.97 94.40 236.49C94.14 236.54 94.09 236.49 93.93 236.49C92.73 236.49 91.52 235.23 91.05 233.98C89.69 229.94 91.52 225.02 93.77 221.72C95.76 219.31 97.91 217.16 100.74 217.16C101.32 217.16 101.95 217.37 102.52 217.58C102.00 222.92 100.43 228.47 97.70 233.14ZM108.39 233.50C107.55 234.03 105.82 235.08 105.25 234.87C104.62 233.77 105.09 231.09 105.30 229.89C106.56 226.48 107.39 222.87 107.92 219.57C108.02 218.63 108.18 217.79 108.23 216.84C108.23 215.59 108.08 214.91 107.08 214.38C95.19 208.31 82.56 222.97 85.29 234.50C86.81 240.79 94.45 242.57 99.33 238.69C99.96 238.17 100.58 237.54 101.11 236.96C101.58 238.43 102.47 239.79 103.94 240.37C106.19 241.15 108.70 239.58 110.49 238.43C112.69 236.96 111.22 231.67 108.39 233.50ZM129.24 215.48C129.08 214.07 127.41 213.44 126.20 213.60C124.89 213.75 123.53 213.75 122.17 213.81C122.43 212.65 122.69 211.61 122.90 210.51C123.48 207.57 119.29 205.11 118.55 208.78C118.19 210.45 117.82 212.13 117.45 213.81C116.41 213.81 115.31 213.81 114.26 213.81C113.05 213.86 111.48 214.80 111.64 216.22C111.74 217.68 113.42 218.10 114.62 218.10C115.20 218.10 115.78 218.00 116.41 218.00C115.31 222.35 114.36 226.75 114.00 231.20C113.79 234.03 113.79 237.59 115.78 239.84C118.13 242.46 121.43 241.15 124.00 239.58C126.36 238.22 124.47 233.50 121.85 235.13C119.65 236.54 118.29 236.59 118.29 233.87C118.29 232.93 118.50 231.25 118.66 229.99C119.29 225.96 120.23 222.03 121.17 218.00C123.01 218.00 124.79 218.00 126.57 217.79C127.77 217.68 129.29 216.90 129.24 215.48ZM138.46 218.94C139.61 218.00 142.08 217.11 144.07 217.79C145.85 218.36 147.05 220.20 145.53 221.72C142.91 224.34 138.62 224.34 135.06 224.02C135.16 223.66 135.32 223.34 135.42 222.97C136.10 221.25 136.99 220.15 138.46 218.94ZM147.05 225.96C150.09 223.81 152.66 219.83 150.72 216.16C148.94 212.81 144.69 212.02 141.29 212.92C138.20 213.70 135.53 215.43 133.43 217.89C129.87 222.14 128.45 228.32 129.87 233.71C131.34 239.21 136.16 241.78 141.60 240.42C142.76 240.16 143.86 239.79 144.90 239.21C146.11 238.64 147.37 237.59 147.21 236.02C147.05 234.71 145.59 234.03 144.43 234.60C142.65 235.49 140.82 236.18 138.83 235.76C137.52 235.55 136.31 234.45 135.63 233.29C134.85 232.04 134.48 230.57 134.37 229.00C138.88 229.26 143.23 228.63 147.05 225.96ZM191.16 214.07C190.17 216.53 186.97 217.42 184.67 218.05C182.62 218.47 180.48 218.73 178.38 218.84C178.85 215.85 179.38 212.86 179.95 209.93C182.31 208.57 185.35 208.36 187.91 208.83C190.48 209.25 192.16 211.66 191.16 214.07ZM187.81 226.22C188.81 226.96 189.22 228.00 189.17 229.26C189.17 230.36 188.49 232.04 188.23 232.56C188.02 232.93 187.81 233.24 187.55 233.56C187.60 233.45 187.23 233.92 187.18 233.92C187.13 233.98 187.13 234.03 187.08 234.03C187.08 234.08 187.02 234.08 186.97 234.13C186.24 234.60 185.66 234.87 184.46 235.18C181.47 235.86 178.28 235.86 175.13 235.76C176.13 232.09 176.76 228.42 177.44 224.70C178.96 224.65 180.69 224.49 182.47 224.28C184.30 224.65 186.24 225.12 187.81 226.22ZM195.67 215.27C196.51 210.30 194.15 204.90 189.12 203.38C185.87 202.39 181.63 202.70 178.43 204.27C177.07 204.53 175.92 205.63 175.60 206.89C173.14 216.95 172.46 227.37 169.63 237.33C169.53 237.49 169.47 237.64 169.37 237.80C169.16 238.48 169.21 239.16 169.58 239.69C169.95 240.21 170.63 240.58 171.41 240.52C171.57 240.52 171.73 240.47 171.94 240.47C179.01 240.84 188.91 241.10 192.79 234.03C194.72 230.67 195.67 226.12 192.73 223.03C192.26 222.55 191.69 222.08 191.11 221.72C193.42 220.35 195.14 218.31 195.67 215.27ZM203.89 205.11C202.64 211.13 201.22 217.16 199.86 223.18C199.13 226.59 198.29 230.05 198.03 233.56C197.92 235.49 198.03 237.69 199.70 238.95C201.59 240.37 204.00 240.21 206.20 239.69C207.40 239.42 208.82 238.64 208.35 237.22C207.93 235.86 206.20 235.34 204.89 235.49C203.95 235.60 203.74 235.39 203.68 234.45C203.47 231.62 205.20 225.07 205.78 222.55C207.04 216.90 208.40 211.19 209.60 205.48C210.23 202.80 204.57 202.39 203.89 205.11ZM211.96 231.04C212.64 236.12 216.20 242.20 222.23 241.15C228.52 240.16 232.29 233.77 233.23 228.06C234.12 222.82 232.97 215.38 227.36 213.13C224.27 211.82 220.81 213.49 218.25 215.17C213.43 218.21 211.02 225.33 211.96 231.04ZM225.01 218.26C227.73 217.79 228.62 220.04 228.93 222.24C229.56 227.06 227.73 231.46 223.80 234.34C222.70 235.18 221.13 235.81 219.98 235.81C215.94 235.81 215.89 228.95 216.62 226.27C217.09 224.44 219.61 218.00 225.01 218.26ZM245.86 234.03C244.81 234.55 243.71 235.08 242.50 235.02C239.83 234.87 240.51 230.20 240.83 228.42C241.35 225.49 242.71 222.40 245.07 220.41C247.27 218.47 249.99 218.36 252.51 219.20C252.04 221.14 251.78 223.13 251.51 225.07C251.25 226.75 250.99 228.47 250.73 230.15C249.31 231.62 247.64 233.03 245.86 234.03ZM256.18 214.75C256.18 214.75 256.18 214.75 256.18 214.75C251.67 212.44 246.59 212.29 242.66 215.64C239.15 218.63 237.26 223.39 236.53 227.79C235.90 231.78 236.06 236.49 239.10 239.42C241.09 241.47 244.39 240.73 246.59 239.69C247.48 239.32 248.27 238.85 249.05 238.32C248.58 242.83 245.49 245.92 243.18 245.92C241.45 246.08 239.73 245.61 238.05 244.92C236.74 244.40 235.06 244.71 234.12 245.82C233.23 246.81 233.49 248.28 234.75 248.75C239.10 250.48 243.71 251.00 247.90 248.59C251.25 246.65 253.14 242.99 254.29 239.53C255.60 235.44 256.23 231.15 256.86 226.85C257.12 225.07 257.38 223.18 257.69 221.40C257.96 219.78 258.17 218.57 258.74 217.37C259.53 215.53 257.85 214.64 256.18 214.75Z" fill="#225378" style="fill: #225378"></path></g><g xmlns:name="symbol_mainfill" id="SvgjsG1058" rel="mainfill" name="symbol" transform="translate(90.95152160307619,-8.409951072610854) scale(0.7492814833579302)" fill="#225378" style="fill: #225378"><path d="M72.31,69.335c2.334,1.65,5.198,2.62,7.919,2.62h3.181c6.231,0,11.3-5.069,11.3-11.301c0-6.23-5.068-11.299-11.3-11.299  h-7.983v-0.729H15.713v4.289c0,0.244,0.011,0.486,0.026,0.728c-0.016,0.431-0.026,0.861-0.026,1.296  c0,11.43,5.473,21.475,13.734,27.227H7.85c-1.413,0-2.559,1.146-2.559,2.559c0,1.414,1.146,2.559,2.559,2.559h8.99  c0,1.016,0.823,1.84,1.838,1.84H72.46c1.016,0,1.839-0.824,1.839-1.84h8.989c1.413,0,2.559-1.145,2.559-2.559  c0-1.412-1.146-2.559-2.559-2.559H61.685C66.209,79.015,69.897,74.581,72.31,69.335z M75.421,55.27h7.988  c2.97,0,5.386,2.416,5.386,5.385c0,2.97-2.416,5.386-5.386,5.386h-3.181c-2.038,0-4.438-1.12-5.821-2.709  C75.045,60.757,75.396,58.055,75.421,55.27z" fill="#225378" style="fill: #225378"></path><path d="M35.887,24.743c1.127-2.535,1.409-5.352,0.563-8.168c-0.563-2.253-3.098-3.943-5.352-2.817c0,0-0.281,0.282-0.281,0.564  c0.281,2.253,1.408,4.225,0.845,6.478c-0.845,2.816-2.816,4.788-3.662,7.604c-0.845,2.535-0.563,5.352,0.563,7.605  c0.776,1.294,1.612,2.38,4.359,2.38c0.677,0,1.226-0.548,1.226-1.226c0-0.189-2.074-4.941-0.797-7.633  C34.197,27.841,35.324,26.433,35.887,24.743z" fill="#225378" style="fill: #225378"></path><path d="M64.738,24.743c1.126-2.535,1.407-5.352,0.562-8.168c-0.562-2.253-3.099-3.943-5.352-2.817c0,0-0.281,0.282-0.281,0.564  c0.281,2.253,1.408,4.225,0.845,6.478c-0.845,2.816-2.816,4.788-3.661,7.604c-0.845,2.535-0.563,5.352,0.562,7.605  c0.777,1.294,1.612,2.38,4.359,2.38c0.677,0,1.227-0.548,1.227-1.226c0-0.189-2.074-4.941-0.798-7.633  C63.048,27.841,64.175,26.433,64.738,24.743z" fill="#225378" style="fill: #225378"></path><path d="M51.66,23.053c0.563-1.69,0.281-3.38,0.281-5.07c0-1.126-0.281-1.972-0.562-3.098c-0.027-0.109-0.102-0.224-0.148-0.326  c-0.051-0.108-0.102-0.216-0.156-0.322c-0.107-0.213-0.224-0.422-0.354-0.623c-0.268-0.41-0.592-0.78-0.953-1.111  c-0.363-0.333-0.763-0.638-1.196-0.875c-0.416-0.226-0.878-0.381-1.353-0.401c-0.379-0.016-0.762,0.034-1.132,0.113  c-0.365,0.078-0.755,0.151-1.049,0.399c-0.072,0.061-0.138,0.135-0.188,0.215c-0.109,0.176-0.079,0.345-0.019,0.533  c0.038,0.117,0.052,0.24,0.083,0.359c0.038,0.148,0.077,0.295,0.116,0.442c0.08,0.298,0.161,0.597,0.244,0.895  c0.168,0.604,0.341,1.207,0.501,1.813c0.156,0.59,0.304,1.185,0.409,1.787c0.104,0.591,0.158,1.193,0.101,1.793  c-0.061,0.635-0.248,1.244-0.459,1.844c-0.026,0.073-0.047,0.152-0.079,0.223c-1.408,3.099-3.38,5.633-4.225,9.013  c-0.845,3.38-0.845,7.323,1.409,10.14c1.126,1.127,3.098,2.253,4.788,1.127c0.282-0.282,0.563-0.563,0.563-0.845  c0-0.564,0-0.845-0.281-1.409c-1.127-2.535-1.409-5.352-0.563-7.887C48.843,28.687,50.815,26.151,51.66,23.053z" fill="#225378" style="fill: #225378"></path></g> </g></svg>
